<?xml version="1.0" standalone="no"?>
<!DOCTYPE svg PUBLIC "-//W3C//DTD SVG 1.1//EN"
  "http://www.w3.org/Graphics/SVG/1.1/DTD/svg11.dtd">
<svg width="160.24655055999756mm" height="107.17099952697752mm" viewBox="-153.39999389648438 -23.225000381469723 160.24655055999756 107.17099952697752" xmlns="http://www.w3.org/2000/svg" version="1.1">
	<title>svgOutput</title>
	<desc>made with tinkercad</desc>
<path d="M 5.846556663513184 37.260444641113274 L 0 43.10699844360351 L -0.8927091360092163 43.999710083007805 L -1.5870000123977661 43.30541992187499 L -3.137209177017212 41.75521087646484 L -4.230999946594238 42.84899902343749 L -4.231501579284668 42.848499298095696 L -4.26110315322876 42.87810516357421 L -11.112000465393066 36.02720642089843 L -12.699999809265137 34.43920516967773 L -14.362103462219238 32.77710342407226 L -15.875 31.26420593261718 L -16.608102798461914 30.531103134155266 L -17.461999893188477 29.677206039428704 L -26.98699951171875 20.152206420898434 L -27.83510398864746 19.304103851318356 L -28.575000762939453 18.564207077026364 L -30.081104278564453 17.058103561401364 L -31.75 15.3892068862915 L -40.18164825439453 6.957559585571287 L -40.18210220336914 6.957103252410887 L -40.15250015258789 6.927499771118162 L -39.02949905395508 5.804500102996825 L -41.275001525878906 3.55999994277954 L -34.53900146484375 -3.1749999523162833 L -32.2945442199707 -0.9305439591407773 L -31.75 -1.4751570224761958 L -31.19627571105957 -2.0289511680603023 L -31.195661544799805 -2.028337478637695 L -31.172000885009766 -2.0520000457763667 L -28.575000762939453 0.5450000166893005 L -26.98699951171875 2.1329998970031734 L -21.070999145507812 8.048999786376951 L -18.82550048828125 10.294500350952147 L -17.461999893188477 11.657999992370604 L -16.579999923706055 12.539999961853024 L -15.875 13.244999885559078 L -12.699999809265137 16.42000007629394 L -11.112000465393066 18.007999420166012 L -7.5980000495910645 21.521999359130856 L -5.352499961853027 23.76749992370605 L -3.1070001125335693 26.013000488281243 L -1.5870000123977661 27.533000946044915 L 0 29.12000083923339 L 4.749000072479248 33.868999481201165 L 4.725337505340576 33.89266204833984 L 3.6020569801330566 35.01594161987304 L 5.846556663513184 37.260444641113274 M -15.083000183105469 -20.638000488281246 L -15.083000183105469 -11.112999916076658 L -15.875 -11.112999916076658 L -17.461999893188477 -11.112999916076658 L -18.256999969482422 -11.112999916076658 L -18.256999969482422 -9.524999618530272 L -26.98699951171875 -9.524999618530272 L -28.575000762939453 -9.524999618530272 L -31.75 -9.524999618530272 L -38.64500045776367 -9.524999618530272 L -38.692325592041016 -9.524999618530272 L -40.888999938964844 -9.524999618530272 L -54.36582946777344 -9.524999618530272 L -56.60499954223633 -9.524999618530272 L -56.664207458496094 -9.524999618530272 L -69.05699920654297 -9.524999618530272 L -69.05799865722656 -9.524999618530272 L -69.05799865722656 -11.112999916076658 L -72.23200225830078 -11.112999916076658 L -72.23200225830078 -17.462999343872067 L -72.23200225830078 -19.049999237060543 L -72.23200225830078 -20.638000488281246 L -69.05799865722656 -20.638000488281246 L -69.05799865722656 -21.91879272460937 L -69.05799865722656 -21.978000640869137 L -69.05799865722656 -22.225000381469723 L -69.05699920654297 -22.225000381469723 L -67.07148742675781 -22.225000381469723 L -53.5890007019043 -22.225000381469723 L -51.39232635498047 -22.225000381469723 L -51.345001220703125 -22.225000381469723 L -44.45899963378906 -22.225000381469723 L -44.45899963378906 -19.048000335693356 L -42.85499954223633 -19.048000335693356 L -42.85499954223633 -22.225000381469723 L -42.854000091552734 -22.225000381469723 L -31.75 -22.225000381469723 L -28.575000762939453 -22.225000381469723 L -26.98699951171875 -22.225000381469723 L -18.256999969482422 -22.225000381469723 L -18.256999969482422 -20.638000488281246 L -17.461999893188477 -20.638000488281246 L -15.875 -20.638000488281246 L -15.083000183105469 -20.638000488281246 M -8.74349308013916 22.667701721191403 L -8.743596076965332 22.66759872436523 L -9.40116024017334 23.325262069702145 L -11.112000465393066 25.036355972290032 L -12.699999809265137 26.624589920043938 L -15.456000328063965 29.38100051879882 L -13.211064338684082 31.625936508178704 L -13.211050033569336 31.625949859619134 L -12.699999809265137 31.1149673461914 L -12.453462600708008 30.86846160888671 L -11.112000465393066 29.526821136474602 L -6.49849271774292 24.912702560424798 L -6.498534679412842 24.912660598754876 L -8.74349308013916 22.667701721191403 M -11.112000465393066 57.54700088500975 L -1.5870000123977661 57.54700088500975 L -1.5870000123977661 60.721000671386705 L 0 60.721000671386705 L 0 72.53600311279295 L 0 79.77100372314452 L 0 79.77200317382811 L -1.5870000123977661 79.77200317382811 L -1.5870000123977661 82.9459991455078 L -11.112000465393066 82.9459991455078 L -11.112000465393066 79.77200317382811 L -12.699999809265137 79.77200317382811 L -12.699999809265137 79.77100372314452 L -12.699999809265137 60.721000671386705 L -11.112000465393066 60.721000671386705 L -11.112000465393066 57.54700088500975 M -15.875 50.79999923706053 L -17.461999893188477 50.79999923706053 L -21.58234405517578 50.79999923706053 L -21.58650779724121 50.79999923706053 L -24.22083282470703 50.79999923706053 L -26.98699951171875 50.79999923706053 L -28.575000762939453 50.79999923706053 L -31.75 50.79999923706053 L -42.69396209716797 50.79999923706053 L -45.56700134277344 50.79999923706053 L -47.62300109863281 50.79999923706053 L -60.327999114990234 50.79999923706053 L -63.03300094604492 50.79999923706053 L -66.20899963378906 50.79999923706053 L -79.37300109863281 50.79999923706053 L -87.01719665527344 50.79999923706053 L -87.02165222167969 50.79999923706053 L -89.55599975585938 50.79999923706053 L -92.7249984741211 50.79999923706053 L -89.55599975585938 46.61040496826171 L -83.60587310791016 38.743999481201165 L -79.37300109863281 33.14790725708007 L -66.20899963378906 15.744364738464352 L -63.03300094604492 11.545515060424803 L -60.327999114990234 7.969353199005125 L -54.29999923706055 1.1102230246251565e-16 L -47.62300109863281 8.827367782592772 L -45.56700134277344 11.545515060424803 L -42.39099884033203 15.744364738464352 L -31.75 29.81236267089843 L -28.575000762939453 34.00988769531249 L -26.98699951171875 36.10931396484374 L -25.611631393432617 37.927627563476555 L -24.65369987487793 39.1940689086914 L -18.90520668029785 46.793899536132805 L -17.946533203125 48.06131744384764 L -17.461999893188477 48.701896667480455 L -15.875 50.79999923706053 M -22.216493606567383 9.194702148437498 L -22.216594696044922 9.194599151611326 L -22.874160766601562 9.852261543273924 L -26.98699951171875 13.965711593627926 L -28.575000762939453 15.553947448730465 L -28.929000854492188 15.907999992370602 L -28.575000762939453 16.26199913024902 L -26.98699951171875 17.850000381469723 L -26.684064865112305 18.15293502807617 L -26.684049606323242 18.15295028686523 L -25.926462173461914 17.39546203613281 L -19.971492767333984 11.43970203399658 L -19.971534729003906 11.439660072326658 L -22.216493606567383 9.194702148437498 M -26.98699951171875 57.54700088500975 L -17.461999893188477 57.54700088500975 L -17.461999893188477 60.721000671386705 L -15.875 60.721000671386705 L -15.875 72.53600311279295 L -15.875 79.77100372314452 L -15.875 79.77200317382811 L -17.461999893188477 79.77200317382811 L -17.461999893188477 82.9459991455078 L -26.98699951171875 82.9459991455078 L -26.98699951171875 79.77200317382811 L -28.575000762939453 79.77200317382811 L -28.575000762939453 79.77100372314452 L -28.575000762939453 60.721000671386705 L -26.98699951171875 60.721000671386705 L -26.98699951171875 57.54700088500975 M -151.30709838867188 19.657102584838864 L -151.27749633789062 19.627500534057614 L -150.1544952392578 18.5044994354248 L -152.39999389648438 16.260000228881832 L -145.66400146484375 9.524999618530272 L -143.41954040527344 11.769455909729002 L -142.32127380371094 10.67104911804199 L -142.32066345214844 10.67166233062744 L -142.2969970703125 10.647999763488768 L -132.1959991455078 20.749000549316403 L -129.95050048828125 22.994499206542965 L -127.70500183105469 25.239999771118157 L -118.7229995727539 34.222000122070305 L -116.47750091552734 36.46749877929687 L -114.23200225830078 38.713001251220696 L -107.94999694824219 44.99499893188476 L -106.3759994506836 46.56900024414062 L -106.39966583251953 46.59266281127929 L -107.52294158935547 47.71594238281249 L -105.2784423828125 49.960441589355455 L -107.94999694824219 52.63199996948241 L -112.01770782470703 56.69971084594725 L -114.26220703125 54.45520782470702 L -115.35600280761719 55.54899978637694 L -115.35649871826172 55.54850006103514 L -115.38610076904297 55.57810211181639 L -125.48710632324219 45.47710418701171 L -127.73310089111328 43.23110198974609 L -138.96009826660156 32.004104614257805 L -141.2061004638672 29.758104324340813 L -151.306640625 19.65756034851074 L -151.30709838867188 19.657102584838864 M -136.52499389648438 1.1102230246251565e-16 L -130.81765747070312 1.1102230246251565e-16 L -130.81349182128906 1.1102230246251565e-16 L -128.1808319091797 1.1102230246251565e-16 L -112.34658813476562 1.1102230246251565e-16 L -109.70603942871094 1.1102230246251565e-16 L -107.94999694824219 1.1102230246251565e-16 L -106.83300018310547 1.1102230246251565e-16 L -104.7770004272461 1.1102230246251565e-16 L -92.0719985961914 1.1102230246251565e-16 L -89.36699676513672 1.1102230246251565e-16 L -86.19200134277344 1.1102230246251565e-16 L -73.02799987792969 1.1102230246251565e-16 L -65.38280487060547 1.1102230246251565e-16 L -65.37834167480469 1.1102230246251565e-16 L -62.84400177001953 1.1102230246251565e-16 L -59.67499923706055 1.1102230246251565e-16 L -62.84400177001953 4.189595222473144 L -68.79412841796875 12.055999755859371 L -73.02799987792969 17.653413772583004 L -86.19200134277344 35.05695724487304 L -89.36699676513672 39.25448608398437 L -92.0719985961914 42.83064651489257 L -98.0999984741211 50.79999923706053 L -104.7770004272461 41.9726333618164 L -106.83300018310547 39.25448608398437 L -107.94999694824219 37.77774810791015 L -110.00900268554688 35.05563735961913 L -126.78836822509766 12.87237167358398 L -127.74629974365234 11.605932235717772 L -133.49464416503906 4.006309509277343 L -134.45346069335938 2.7386822700500484 L -136.52499389648438 1.1102230246251565e-16 M -132.55799865722656 -6.349999904632567 L -132.55799865722656 -7.938000202178953 L -135.73199462890625 -7.938000202178953 L -135.73199462890625 -17.462999343872067 L -132.55799865722656 -17.462999343872067 L -132.55799865722656 -19.049999237060543 L -132.5570068359375 -19.049999237060543 L -107.94999694824219 -19.049999237060543 L -81.75700378417969 -19.049999237060543 L -81.75700378417969 -17.462999343872067 L -78.58300018310547 -17.462999343872067 L -78.58300018310547 -11.112999916076658 L -78.58300018310547 -9.524999618530272 L -78.58300018310547 -7.938000202178953 L -81.75700378417969 -7.938000202178953 L -81.75700378417969 -6.349999904632567 L -107.94999694824219 -6.349999904632567 L -132.5570068359375 -6.349999904632567 L -132.55799865722656 -6.349999904632567 M -133.34149169921875 21.894701004028317 L -133.3415985107422 21.894599914550778 L -133.99916076660156 22.55226135253906 L -140.0540008544922 28.607999801635735 L -137.80906677246094 30.852935791015618 L -137.80905151367188 30.852949142456048 L -137.0514678955078 30.09546279907226 L -131.09649658203125 24.13970184326171 L -131.09654235839844 24.13965988159179 L -133.34149169921875 21.894701004028317 M -119.86849212646484 35.36770248413085 L -119.86859893798828 35.36759948730468 L -120.52616119384766 36.02526092529296 L -126.58100128173828 42.081001281738274 L -124.33606719970703 44.325935363769524 L -124.33605194091797 44.32595062255859 L -123.57846069335938 43.568462371826165 L -117.62348937988281 37.61270141601562 L -117.62353515625 37.612659454345696 L -119.86849212646484 35.36770248413085 M -80.96299743652344 79.37499999999999 L -80.96299743652344 71.43800354003905 L -101.5979995727539 71.43800354003905 L -101.5979995727539 68.2730026245117 L -104.77799987792969 68.2730026245117 L -104.77799987792969 71.43800354003905 L -107.94999694824219 71.43800354003905 L -107.94999694824219 63.01420593261717 L -107.94999694824219 62.95500183105467 L -107.94999694824219 61.912998199462876 L -104.77799987792969 61.912998199462876 L -104.77799987792969 65.10299682617186 L -101.5979995727539 65.10299682617186 L -101.5979995727539 61.912998199462876 L -80.96299743652344 61.912998199462876 L -80.96299743652344 53.97499847412108 L -77.78800201416016 53.97499847412108 L -77.78800201416016 61.912998199462876 L -31.75 61.912998199462876 L -31.75 71.43800354003905 L -77.78800201416016 71.43800354003905 L -77.78800201416016 79.37499999999999 L -80.96299743652344 79.37499999999999 M -7.057000160217285 72.42199707031249 L -6.348999977111816 72.53500366210936 L -5.642000198364258 72.42199707031249 L -5.004000186920166 72.0970001220703 L -4.498000144958496 71.59100341796874 L -4.172999858856201 70.95300292968749 L -4.061079025268555 70.24649810791014 L -4.158425807952881 69.63200378417967 L -4.172999858856201 69.54000091552733 L -4.498000144958496 68.90200042724608 L -5.004000186920166 68.39600372314452 L -5.642000198364258 68.0709991455078 L -6.348999977111816 67.95899963378905 L -7.057000160217285 68.0709991455078 L -7.695000171661377 68.39600372314452 L -8.201000213623047 68.90200042724608 L -8.526000022888184 69.54000091552733 L -8.540574073791504 69.63200378417967 L -8.637920379638672 70.24649810791014 L -8.526000022888184 70.95300292968749 L -8.201000213623047 71.59100341796874 L -7.695000171661377 72.0970001220703 L -7.057000160217285 72.42199707031249 M -28.275999069213867 41.923999786376946 L -26.98699951171875 43.63442611694335 L -22.541000366210938 49.5340003967285 L -22.540660858154297 49.533744812011705 L -20.004220962524414 47.62216567993163 L -20.003999710083008 47.62200164794921 L -25.73900032043457 40.01200103759765 L -25.739259719848633 40.012195587158196 L -26.98699951171875 40.95254898071288 L -28.27522087097168 41.92341232299804 L -28.275999069213867 41.923999786376946 M -22.93199920654297 72.42199707031249 L -22.224000930786133 72.53500366210936 L -21.517000198364258 72.42199707031249 L -20.878999710083008 72.0970001220703 L -20.37299919128418 71.59100341796874 L -20.04800033569336 70.95300292968749 L -19.936079025268555 70.24649810791014 L -20.03342628479004 69.63200378417967 L -20.04800033569336 69.54000091552733 L -20.37299919128418 68.90200042724608 L -20.878999710083008 68.39600372314452 L -21.517000198364258 68.0709991455078 L -22.224000930786133 67.95899963378905 L -22.93199920654297 68.0709991455078 L -23.56999969482422 68.39600372314452 L -24.076000213623047 68.90200042724608 L -24.400999069213867 69.54000091552733 L -24.41557502746582 69.63200378417967 L -24.512920379638672 70.24649810791014 L -24.400999069213867 70.95300292968749 L -24.076000213623047 71.59100341796874 L -23.56999969482422 72.0970001220703 L -22.93199920654297 72.42199707031249 M -110.00900268554688 19.052999496459957 L -107.94999694824219 19.052999496459957 L -106.83300018310547 19.052999496459957 L -106.83300018310547 6.348000049591063 L -107.94999694824219 6.348000049591063 L -110.00900268554688 6.348000049591063 L -110.00900268554688 19.052999496459957 M -129.86000061035156 1.2660000324249268 L -132.39578247070312 3.1778335571289054 L -132.39599609375 3.1779999732971183 L -126.66100311279297 10.788000106811522 L -126.6607437133789 10.787803649902342 L -124.1247787475586 8.876586914062498 L -124.1240005493164 8.876000404357908 L -128.27198791503906 3.372831106185912 L -129.86000061035156 1.2660000324249268 M -66.33599853515625 1.2649999856948853 L -72.07099914550781 8.876000404357908 L -69.53399658203125 10.786999702453612 L -63.79899978637695 3.1770000457763663 L -66.33599853515625 1.2649999856948853 M -93.66000366210938 41.27799987792968 L -93.66000366210938 38.0979995727539 L -103.18900299072266 38.0979995727539 L -103.18900299072266 41.27799987792968 L -93.66000366210938 41.27799987792968 M -93.66000366210938 19.052999496459957 L -93.66000366210938 15.873000144958493 L -103.18900299072266 15.873000144958493 L -103.18900299072266 19.052999496459957 L -93.66000366210938 19.052999496459957 M -89.36699676513672 19.052999496459957 L -86.19200134277344 19.052999496459957 L -86.19200134277344 6.348000049591063 L -89.36699676513672 6.348000049591063 L -89.36699676513672 19.052999496459957 M -86.06400299072266 49.534999847412095 L -80.3290023803711 41.923999786376946 L -82.86599731445312 40.01300048828124 L -88.60099792480469 47.623001098632805 L -86.06400299072266 49.534999847412095 M -58.7400016784668 12.701999664306637 L -49.21099853515625 12.701999664306637 L -49.21099853515625 9.522000312805174 L -58.7400016784668 9.522000312805174 L -58.7400016784668 12.701999664306637 M -58.7400016784668 34.92699813842773 L -49.21099853515625 34.92699813842773 L -49.21099853515625 31.747999191284173 L -58.7400016784668 31.747999191284173 L -58.7400016784668 34.92699813842773 M -63.03300094604492 31.747999191284173 L -66.20899963378906 31.747999191284173 L -66.20899963378906 44.45299911499023 L -63.03300094604492 44.45299911499023 L -63.03300094604492 31.747999191284173 M -42.39099884033203 31.747999191284173 L -45.56700134277344 31.747999191284173 L -45.56700134277344 44.45299911499023 L -42.39099884033203 44.45299911499023 L -42.39099884033203 31.747999191284173 z" fill="none" stroke="rgb(255,0,0)" stroke-width="0.001mm" />
</svg>