<?xml version="1.0" standalone="no"?>
<!DOCTYPE svg PUBLIC "-//W3C//DTD SVG 1.1//EN"
  "http://www.w3.org/Graphics/SVG/1.1/DTD/svg11.dtd">
<svg width="72mm" height="71.99999999999999mm" viewBox="-20 -23.999999999999996 72 71.99999999999999" xmlns="http://www.w3.org/2000/svg" version="1.1">
	<title>svgOutput</title>
	<desc>made with tinkercad</desc>
<path d="M 28.500999450683594 22.63400077819824 L 27.885499954223633 22.018499374389645 L 6.001999855041504 0.1350000053644181 L 28.500999450683594 -22.364000320434567 L 51 -22.364000320434567 L 51 -1.095999956130981 L 51 0.1350000053644181 L 28.500999450683594 22.63400077819824 M 4.955999851226807 -0.5009999871253965 L 3.4570000171661377 -1.9999999999999996 L -17.316999435424805 -22.774000167846676 L -17.542999267578125 -22.999999999999996 L -17.090999603271484 -22.999999999999996 L 3.4570000171661377 -22.999999999999996 L 27.454999923706055 -22.999999999999996 L 4.955999851226807 -0.5009999871253965 M 4.13700008392334 45.76699829101562 L 4.13700008392334 23.26899909973144 L 3.4570000171661377 23.26899909973144 L -18.36199951171875 23.26899909973144 L -18.361000061035156 23.267999649047848 L -18.363000869750977 23.267999649047848 L -18.363000869750977 -21.725999832153317 L 3.4570000171661377 0.0935150682926179 L 4.7502570152282715 1.386743187904358 L 26.631999969482422 23.267999649047848 L 26.632999420166016 23.26899909973144 L 26.634000778198242 23.27000045776367 L 4.13700008392334 45.76699829101562 M 6.001999855041504 46.99999999999999 L 51 2.0020000934600826 L 51 46.99999999999999 L 6.001999855041504 46.99999999999999 M -17.09000015258789 24.542999267578118 L 3.4570000171661377 24.542999267578118 L 3.4570000171661377 45.09000015258788 L 3.4570000171661377 46.4469985961914 L 3.4570000171661377 46.99999999999999 L -19 46.99999999999999 L -19 24.542999267578118 L -18.363000869750977 24.542999267578118 L -17.09000015258789 24.542999267578118 z" fill="none" stroke="rgb(255,0,0)" stroke-width="0.001mm" />
</svg>